***************************************************************

Jack Reacher 2012 1080p x264 ACC - alrmothe

***************************************************************

Title : Jack Reacher
YEAR: 2012
GENRE : Action | Crime | Thriller       
imdb URL :http://www.imdb.com/title/tt0790724/
Format: MP4
Overall bit rate: 7326 kbps
Format version: Version 4 / Version 2
File size: 6.76 GiB
Duration:  2h 10mn
Sub:Arabic,English,Dutch,Swedish,Norwegian
brazillian-portuguese,French,Danish
***************************************************************

Video
Format : AVC 
Format/Info : Advanced Video Codec 
Format profile : High@L4.0 
Format settings, CABAC : Yes 
Format settings, ReFrames : 4 frames  
Codec ID : V_MPEG4/ISO/AVC  
Bit rate : 6875 kbps 
Width : 1920 pixels 
Height : 816 pixels 
Display aspect ratio : 16:9 
Frame rate : 23.976 fps 
Color space : YUV 
Chroma subsampling : 4:2:0 
Bit depth : 8 bits 
Scan type : Progressive 
Bits/(Pixel*Frame) : 0.183 
Stream size: 6.26 GiB 


Audio#1 
Format: ACC
Bit rate :448 Kbps
Channel(s) : 6 channels
Channel positions:Front: L C R, Side: L R, LFE
Sampling rate: 48.0 KHz
Bit depth: 24 bits
Compression mode: Lossy
Stream size: 348 GiB
Language : English

***************************************************************

sample: yes


Source 
http://img20.imageshack.us/img20/4481/shot0002f.png


After Encoded  
http://img542.imageshack.us/img542/9412/vlcsnap2013042020h08m59.png


Screenshots 
http://img547.imageshack.us/img547/15/vlcsnap2013042019h11m43.png 
http://img194.imageshack.us/img194/6985/vlcsnap2013042019h13m40.png 
http://img51.imageshack.us/img51/1538/vlcsnap2013042019h15m05.png 
http://img248.imageshack.us/img248/1387/vlcsnap2013042019h15m33.png 
http://img15.imageshack.us/img15/128/vlcsnap2013042019h16m26.png
